# xmcd
#
# Track frame offsets:
#   150
#   12820
#   26734
#   40540
#   55644
#   74001
#   86762
#   104197
#   128296
#   143646
#   161809
#   179208
#   190341
#   205405
#   225377
#   247012
#   257499
#   273258
#   295137
#   306232
#   320259
#   336162
#
# Disc length: 4722 seconds
#
# Revision: 0
# Processed by: cddbd v1.5.1PL0 Copyright (c) Steve Scherf et al.
# Submitted via: Media_Universe 3.0
#
DISCID=42127016
DTITLE=Dwight Yoakam - Dwight Yoakam
DYEAR=1900
DGENRE=Country
TTITLE0=Honky Tonk Man
TTITLE1=Guitars And Cadillacs
TTITLE2=Little Sister
TTITLE3=Little Ways
TTITLE4=Please Please Baby
TTITLE5=Streets Of Bakersfield
TTITLE6=I Sang Dixie
TTITLE7=Long White Cadillac
TTITLE8=Turn It On, Turn It Up,Turn Me Loose
TTITLE9=Youre The One
TTITLE10=Suspicious Minds
TTITLE11=It Only Hurts When I Cry
TTITLE12=Aint That Lonely Yet
TTITLE13=A Thousand Miles From Nowhere
TTITLE14=Fast As You
TTITLE15=Crazy Little Thing Called Love
TTITLE16=I Want You To Want Me
TTITLE17=Things Change
TTITLE18=The Last Great Golden State
TTITLE19=The Back Of Your Hand
TTITLE20=These Arms
TTITLE21=Baby Dont Go
EXTD=
EXTT0=
EXTT1=
EXTT2=
EXTT3=
EXTT4=
EXTT5=
EXTT6=
EXTT7=
EXTT8=
EXTT9=
EXTT10=
EXTT11=
EXTT12=
EXTT13=
EXTT14=
EXTT15=
EXTT16=
EXTT17=
EXTT18=
EXTT19=
EXTT20=
EXTT21=
PLAYORDER=
